{
    "asset" : {
        "generator" : "Khronos glTF Blender I/O v1.2.75",
        "version" : "2.0"
    },
    "scene" : 0,
    "scenes" : [
        {
            "name" : "Scene",
            "nodes" : [
                0,
                1,
                2,
                3,
                4,
                5,
                6
            ]
        }
    ],
    "nodes" : [
        {
            "mesh" : 0,
            "name" : "Cube.001",
            "rotation" : [
                0.27782148122787476,
                -0.21095116436481476,
                -0.13459941744804382,
                0.927468478679657
            ],
            "scale" : [
                1.226003885269165,
                0.10334870964288712,
                0.1101648211479187
            ],
            "translation" : [
                -2.8059980869293213,
                1.2640000581741333,
                -0.6650124788284302
            ]
        },
        {
            "mesh" : 1,
            "name" : "Cube.002",
            "rotation" : [
                -0.10273474454879761,
                -0.8252681493759155,
                -0.4118629992008209,
                0.37248751521110535
            ],
            "scale" : [
                1.6476695537567139,
                0.09642516076564789,
                0.09642519056797028
            ],
            "translation" : [
                -5.362485885620117,
                1.483538269996643,
                0.448169469833374
            ]
        },
        {
            "mesh" : 2,
            "name" : "Cube.003",
            "rotation" : [
                0.010602803900837898,
                -0.6179414391517639,
                -0.13510772585868835,
                0.7744558453559875
            ],
            "scale" : [
                1.8734551668167114,
                0.09642516076564789,
                0.09642518311738968
            ],
            "translation" : [
                -3.5107877254486084,
                1.300696611404419,
                1.1192336082458496
            ]
        },
        {
            "mesh" : 3,
            "name" : "Cube.004",
            "rotation" : [
                0.07098852097988129,
                0.1138937771320343,
                0.041658300906419754,
                0.9900774955749512
            ],
            "scale" : [
                1.9978581666946411,
                0.09642519056797028,
                0.09642520546913147
            ],
            "translation" : [
                -6.208604335784912,
                1.5678200721740723,
                -0.6028189659118652
            ]
        },
        {
            "mesh" : 4,
            "name" : "Cube.005",
            "rotation" : [
                0.29462459683418274,
                0.07749465852975845,
                -0.19255389273166656,
                0.9327989816665649
            ],
            "scale" : [
                0.3826889991760254,
                0.13356979191303253,
                0.13356980681419373
            ],
            "translation" : [
                -1.1612430810928345,
                0.6462843418121338,
                -0.365522563457489
            ]
        },
        {
            "mesh" : 5,
            "name" : "Cube.006",
            "scale" : [
                0.09571544826030731,
                0.09571544826030731,
                0.653809666633606
            ],
            "translation" : [
                -0.29764115810394287,
                0,
                -1.5582331418991089
            ]
        },
        {
            "mesh" : 6,
            "name" : "Cube",
            "scale" : [
                0.5,
                0.5,
                0.5
            ]
        }
    ],
    "meshes" : [
        {
            "name" : "Cube.003",
            "primitives" : [
                {
                    "attributes" : {
                        "POSITION" : 0,
                        "NORMAL" : 1,
                        "TEXCOORD_0" : 2
                    },
                    "indices" : 3
                }
            ]
        },
        {
            "name" : "Cube.004",
            "primitives" : [
                {
                    "attributes" : {
                        "POSITION" : 4,
                        "NORMAL" : 5,
                        "TEXCOORD_0" : 6
                    },
                    "indices" : 7
                }
            ]
        },
        {
            "name" : "Cube.005",
            "primitives" : [
                {
                    "attributes" : {
                        "POSITION" : 8,
                        "NORMAL" : 9,
                        "TEXCOORD_0" : 10
                    },
                    "indices" : 3
                }
            ]
        },
        {
            "name" : "Cube.006",
            "primitives" : [
                {
                    "attributes" : {
                        "POSITION" : 11,
                        "NORMAL" : 12,
                        "TEXCOORD_0" : 13
                    },
                    "indices" : 7
                }
            ]
        },
        {
            "name" : "Cube.007",
            "primitives" : [
                {
                    "attributes" : {
                        "POSITION" : 14,
                        "NORMAL" : 15,
                        "TEXCOORD_0" : 16
                    },
                    "indices" : 17
                }
            ]
        },
        {
            "name" : "Cube.008",
            "primitives" : [
                {
                    "attributes" : {
                        "POSITION" : 18,
                        "NORMAL" : 19,
                        "TEXCOORD_0" : 20
                    },
                    "indices" : 21
                }
            ]
        },
        {
            "name" : "Cube.009",
            "primitives" : [
                {
                    "attributes" : {
                        "POSITION" : 22,
                        "NORMAL" : 23,
                        "TEXCOORD_0" : 24
                    },
                    "indices" : 25
                }
            ]
        }
    ],
    "accessors" : [
        {
            "bufferView" : 0,
            "componentType" : 5126,
            "count" : 48,
            "max" : [
                4.627447605133057,
                11.038422584533691,
                1
            ],
            "min" : [
                -1,
                -1,
                -33.49971389770508
            ],
            "type" : "VEC3"
        },
        {
            "bufferView" : 1,
            "componentType" : 5126,
            "count" : 48,
            "type" : "VEC3"
        },
        {
            "bufferView" : 2,
            "componentType" : 5126,
            "count" : 48,
            "type" : "VEC2"
        },
        {
            "bufferView" : 3,
            "componentType" : 5123,
            "count" : 72,
            "type" : "SCALAR"
        },
        {
            "bufferView" : 4,
            "componentType" : 5126,
            "count" : 48,
            "max" : [
                1,
                65.45804595947266,
                1
            ],
            "min" : [
                -4.664236545562744,
                -1,
                -72.62110900878906
            ],
            "type" : "VEC3"
        },
        {
            "bufferView" : 5,
            "componentType" : 5126,
            "count" : 48,
            "type" : "VEC3"
        },
        {
            "bufferView" : 6,
            "componentType" : 5126,
            "count" : 48,
            "type" : "VEC2"
        },
        {
            "bufferView" : 7,
            "componentType" : 5123,
            "count" : 72,
            "type" : "SCALAR"
        },
        {
            "bufferView" : 8,
            "componentType" : 5126,
            "count" : 48,
            "max" : [
                1.6927398443222046,
                17.10719871520996,
                1
            ],
            "min" : [
                -1,
                -1,
                -78.57901000976562
            ],
            "type" : "VEC3"
        },
        {
            "bufferView" : 9,
            "componentType" : 5126,
            "count" : 48,
            "type" : "VEC3"
        },
        {
            "bufferView" : 10,
            "componentType" : 5126,
            "count" : 48,
            "type" : "VEC2"
        },
        {
            "bufferView" : 11,
            "componentType" : 5126,
            "count" : 48,
            "max" : [
                6.9444122314453125,
                1,
                40.03612518310547
            ],
            "min" : [
                -1,
                -12.229593276977539,
                -1
            ],
            "type" : "VEC3"
        },
        {
            "bufferView" : 12,
            "componentType" : 5126,
            "count" : 48,
            "type" : "VEC3"
        },
        {
            "bufferView" : 13,
            "componentType" : 5126,
            "count" : 48,
            "type" : "VEC2"
        },
        {
            "bufferView" : 14,
            "componentType" : 5126,
            "count" : 48,
            "max" : [
                6.494258880615234,
                9.857688903808594,
                1.727135181427002
            ],
            "min" : [
                -1,
                -1,
                -1
            ],
            "type" : "VEC3"
        },
        {
            "bufferView" : 15,
            "componentType" : 5126,
            "count" : 48,
            "type" : "VEC3"
        },
        {
            "bufferView" : 16,
            "componentType" : 5126,
            "count" : 48,
            "type" : "VEC2"
        },
        {
            "bufferView" : 17,
            "componentType" : 5123,
            "count" : 72,
            "type" : "SCALAR"
        },
        {
            "bufferView" : 18,
            "componentType" : 5126,
            "count" : 48,
            "max" : [
                7.219292163848877,
                1,
                1
            ],
            "min" : [
                -1,
                -1,
                -1
            ],
            "type" : "VEC3"
        },
        {
            "bufferView" : 19,
            "componentType" : 5126,
            "count" : 48,
            "type" : "VEC3"
        },
        {
            "bufferView" : 20,
            "componentType" : 5126,
            "count" : 48,
            "type" : "VEC2"
        },
        {
            "bufferView" : 21,
            "componentType" : 5123,
            "count" : 72,
            "type" : "SCALAR"
        },
        {
            "bufferView" : 22,
            "componentType" : 5126,
            "count" : 24,
            "max" : [
                1,
                1,
                1
            ],
            "min" : [
                -1,
                -1,
                -1
            ],
            "type" : "VEC3"
        },
        {
            "bufferView" : 23,
            "componentType" : 5126,
            "count" : 24,
            "type" : "VEC3"
        },
        {
            "bufferView" : 24,
            "componentType" : 5126,
            "count" : 24,
            "type" : "VEC2"
        },
        {
            "bufferView" : 25,
            "componentType" : 5123,
            "count" : 36,
            "type" : "SCALAR"
        }
    ],
    "bufferViews" : [
        {
            "buffer" : 0,
            "byteLength" : 576,
            "byteOffset" : 0
        },
        {
            "buffer" : 0,
            "byteLength" : 576,
            "byteOffset" : 576
        },
        {
            "buffer" : 0,
            "byteLength" : 384,
            "byteOffset" : 1152
        },
        {
            "buffer" : 0,
            "byteLength" : 144,
            "byteOffset" : 1536
        },
        {
            "buffer" : 0,
            "byteLength" : 576,
            "byteOffset" : 1680
        },
        {
            "buffer" : 0,
            "byteLength" : 576,
            "byteOffset" : 2256
        },
        {
            "buffer" : 0,
            "byteLength" : 384,
            "byteOffset" : 2832
        },
        {
            "buffer" : 0,
            "byteLength" : 144,
            "byteOffset" : 3216
        },
        {
            "buffer" : 0,
            "byteLength" : 576,
            "byteOffset" : 3360
        },
        {
            "buffer" : 0,
            "byteLength" : 576,
            "byteOffset" : 3936
        },
        {
            "buffer" : 0,
            "byteLength" : 384,
            "byteOffset" : 4512
        },
        {
            "buffer" : 0,
            "byteLength" : 576,
            "byteOffset" : 4896
        },
        {
            "buffer" : 0,
            "byteLength" : 576,
            "byteOffset" : 5472
        },
        {
            "buffer" : 0,
            "byteLength" : 384,
            "byteOffset" : 6048
        },
        {
            "buffer" : 0,
            "byteLength" : 576,
            "byteOffset" : 6432
        },
        {
            "buffer" : 0,
            "byteLength" : 576,
            "byteOffset" : 7008
        },
        {
            "buffer" : 0,
            "byteLength" : 384,
            "byteOffset" : 7584
        },
        {
            "buffer" : 0,
            "byteLength" : 144,
            "byteOffset" : 7968
        },
        {
            "buffer" : 0,
            "byteLength" : 576,
            "byteOffset" : 8112
        },
        {
            "buffer" : 0,
            "byteLength" : 576,
            "byteOffset" : 8688
        },
        {
            "buffer" : 0,
            "byteLength" : 384,
            "byteOffset" : 9264
        },
        {
            "buffer" : 0,
            "byteLength" : 144,
            "byteOffset" : 9648
        },
        {
            "buffer" : 0,
            "byteLength" : 288,
            "byteOffset" : 9792
        },
        {
            "buffer" : 0,
            "byteLength" : 288,
            "byteOffset" : 10080
        },
        {
            "buffer" : 0,
            "byteLength" : 192,
            "byteOffset" : 10368
        },
        {
            "buffer" : 0,
            "byteLength" : 72,
            "byteOffset" : 10560
        }
    ],
    "buffers" : [
        {
            "byteLength" : 10632,
            "uri" : "Bat.bin"
        }
    ]
}
