{
    "asset" : {
        "generator" : "Khronos glTF Blender I/O v3.4.49",
        "version" : "2.0"
    },
    "scene" : 0,
    "scenes" : [
        {
            "name" : "Scene",
            "nodes" : [
                0,
                1
            ]
        }
    ],
    "nodes" : [
        {
            "mesh" : 0,
            "name" : "g"
        },
        {
            "mesh" : 1,
            "name" : "w"
        }
    ],
    "materials" : [
        {
            "doubleSided" : true,
            "name" : "Base",
            "normalTexture" : {
                "index" : 0
            },
            "pbrMetallicRoughness" : {
                "baseColorTexture" : {
                    "index" : 1
                },
                "metallicFactor" : 0,
                "metallicRoughnessTexture" : {
                    "index" : 2
                }
            }
        },
        {
            "doubleSided" : true,
            "name" : "Water",
            "pbrMetallicRoughness" : {
                "baseColorFactor" : [
                    0.01934187114238739,
                    0.33413535356521606,
                    0.41093742847442627,
                    1
                ],
                "metallicFactor" : 0,
                "roughnessFactor" : 0
            }
        }
    ],
    "meshes" : [
        {
            "name" : "Icosphere",
            "primitives" : [
                {
                    "attributes" : {
                        "POSITION" : 0,
                        "TEXCOORD_0" : 1,
                        "NORMAL" : 2,
                        "TANGENT" : 3
                    },
                    "indices" : 4,
                    "material" : 0
                }
            ]
        },
        {
            "name" : "Icosphere.001",
            "primitives" : [
                {
                    "attributes" : {
                        "POSITION" : 5,
                        "TEXCOORD_0" : 6,
                        "NORMAL" : 7,
                        "TANGENT" : 8
                    },
                    "indices" : 4,
                    "material" : 1
                }
            ]
        }
    ],
    "textures" : [
        {
            "sampler" : 0,
            "source" : 0
        },
        {
            "sampler" : 1,
            "source" : 1
        },
        {
            "sampler" : 0,
            "source" : 2
        }
    ],
    "images" : [
        {
            "mimeType" : "image/png",
            "name" : "BugPlanetN",
            "uri" : "BugPlanetN.png"
        },
        {
            "mimeType" : "image/png",
            "name" : "BugPlanetD",
            "uri" : "BugPlanetD.png"
        },
        {
            "mimeType" : "image/png",
            "name" : "BugPlanetR",
            "uri" : "BugPlanetR.png"
        }
    ],
    "accessors" : [
        {
            "bufferView" : 0,
            "componentType" : 5126,
            "count" : 10593,
            "max" : [
                1.003524899482727,
                1.0209612846374512,
                1.0467724800109863
            ],
            "min" : [
                -1.0281965732574463,
                -1.0325366258621216,
                -1.0148632526397705
            ],
            "type" : "VEC3"
        },
        {
            "bufferView" : 1,
            "componentType" : 5126,
            "count" : 10593,
            "type" : "VEC2"
        },
        {
            "bufferView" : 2,
            "componentType" : 5126,
            "count" : 10593,
            "type" : "VEC3"
        },
        {
            "bufferView" : 3,
            "componentType" : 5126,
            "count" : 10593,
            "type" : "VEC4"
        },
        {
            "bufferView" : 4,
            "componentType" : 5123,
            "count" : 61440,
            "type" : "SCALAR"
        },
        {
            "bufferView" : 5,
            "componentType" : 5126,
            "count" : 10593,
            "max" : [
                1,
                1,
                0.9999999403953552
            ],
            "min" : [
                -0.9999999403953552,
                -1,
                -0.9999999403953552
            ],
            "type" : "VEC3"
        },
        {
            "bufferView" : 6,
            "componentType" : 5126,
            "count" : 10593,
            "type" : "VEC2"
        },
        {
            "bufferView" : 7,
            "componentType" : 5126,
            "count" : 10593,
            "type" : "VEC3"
        },
        {
            "bufferView" : 8,
            "componentType" : 5126,
            "count" : 10593,
            "type" : "VEC4"
        }
    ],
    "bufferViews" : [
        {
            "buffer" : 0,
            "byteLength" : 127116,
            "byteOffset" : 0,
            "target" : 34962
        },
        {
            "buffer" : 0,
            "byteLength" : 84744,
            "byteOffset" : 127116,
            "target" : 34962
        },
        {
            "buffer" : 0,
            "byteLength" : 127116,
            "byteOffset" : 211860,
            "target" : 34962
        },
        {
            "buffer" : 0,
            "byteLength" : 169488,
            "byteOffset" : 338976,
            "target" : 34962
        },
        {
            "buffer" : 0,
            "byteLength" : 122880,
            "byteOffset" : 508464,
            "target" : 34963
        },
        {
            "buffer" : 0,
            "byteLength" : 127116,
            "byteOffset" : 631344,
            "target" : 34962
        },
        {
            "buffer" : 0,
            "byteLength" : 84744,
            "byteOffset" : 758460,
            "target" : 34962
        },
        {
            "buffer" : 0,
            "byteLength" : 127116,
            "byteOffset" : 843204,
            "target" : 34962
        },
        {
            "buffer" : 0,
            "byteLength" : 169488,
            "byteOffset" : 970320,
            "target" : 34962
        }
    ],
    "samplers" : [
        {
            "magFilter" : 9729,
            "minFilter" : 9987
        },
        {
            "magFilter" : 9728,
            "minFilter" : 9984
        }
    ],
    "buffers" : [
        {
            "byteLength" : 1139808,
            "uri" : "BugPlanet.bin"
        }
    ]
}
