{
    "asset" : {
        "generator" : "Khronos glTF Blender I/O v1.2.75",
        "version" : "2.0"
    },
    "scene" : 0,
    "scenes" : [
        {
            "name" : "Scene",
            "nodes" : [
                0,
                1,
                2,
                3,
                4,
                5,
                6,
                7,
                8,
                9,
                10,
                11
            ]
        }
    ],
    "nodes" : [
        {
            "mesh" : 0,
            "name" : "Cube"
        },
        {
            "mesh" : 1,
            "name" : "Cube.001",
            "rotation" : [
                0,
                0,
                -0.3826834559440613,
                0.9238795042037964
            ],
            "scale" : [
                1,
                1,
                0.15459361672401428
            ],
            "translation" : [
                0,
                0,
                -1.424363613128662
            ]
        },
        {
            "mesh" : 2,
            "name" : "Cube.002",
            "rotation" : [
                -0.1133754700422287,
                0.16888445615768433,
                -0.027517002075910568,
                0.9787067174911499
            ],
            "scale" : [
                2.453251838684082,
                0.14886027574539185,
                0.14886027574539185
            ],
            "translation" : [
                -3.8095951080322266,
                0.7406893372535706,
                0.038215965032577515
            ]
        },
        {
            "mesh" : 3,
            "name" : "Cube.003",
            "rotation" : [
                0.10672091692686081,
                0.13424353301525116,
                -0.6019157767295837,
                0.7799273729324341
            ],
            "scale" : [
                2.8600757122039795,
                0.14886024594306946,
                0.14886026084423065
            ],
            "translation" : [
                -7.073276996612549,
                4.289715766906738,
                2.2552080154418945
            ]
        },
        {
            "mesh" : 4,
            "name" : "Cube.004",
            "rotation" : [
                0.09124025702476501,
                0.11126767843961716,
                -0.6538807153701782,
                0.7427884340286255
            ],
            "scale" : [
                2.3920881748199463,
                0.14886027574539185,
                0.14886027574539185
            ],
            "translation" : [
                -0.7946406602859497,
                3.6676104068756104,
                -0.24399536848068237
            ]
        },
        {
            "mesh" : 5,
            "name" : "Cube.005",
            "rotation" : [
                -0.12310443073511124,
                0.2130463719367981,
                -0.04649628698825836,
                0.9681397676467896
            ],
            "scale" : [
                2.9934754371643066,
                0.14886029064655304,
                0.14886027574539185
            ],
            "translation" : [
                -4.380382061004639,
                6.9234819412231445,
                1.8181536197662354
            ]
        },
        {
            "mesh" : 6,
            "name" : "Cube.006",
            "scale" : [
                0.5487818717956543,
                0.5487818717956543,
                0.5487818717956543
            ],
            "translation" : [
                -5.08132266998291,
                2.3972058296203613,
                0.6357269287109375
            ]
        },
        {
            "mesh" : 7,
            "name" : "Cube.007",
            "scale" : [
                0.5487818717956543,
                0.5487818717956543,
                0.5487818717956543
            ],
            "translation" : [
                -2.426168441772461,
                3.1728692054748535,
                -0.26352858543395996
            ]
        },
        {
            "mesh" : 8,
            "name" : "Cube.008",
            "scale" : [
                0.5487818717956543,
                0.5487818717956543,
                0.5487818717956543
            ],
            "translation" : [
                -4.602099418640137,
                5.309764862060547,
                1.0368292331695557
            ]
        },
        {
            "mesh" : 9,
            "name" : "Cube.009",
            "scale" : [
                0.7711021900177002,
                0.7711021900177002,
                1.7934165000915527
            ],
            "translation" : [
                0,
                0,
                3.2057337760925293
            ]
        },
        {
            "mesh" : 10,
            "name" : "Cube.010",
            "rotation" : [
                -0.24656528234481812,
                -0.022190885618329048,
                0.25709012150764465,
                0.934140145778656
            ],
            "scale" : [
                1.426533579826355,
                0.15922647714614868,
                3.8784258365631104
            ],
            "translation" : [
                -2.307169198989868,
                2.983778953552246,
                3.6030921936035156
            ]
        },
        {
            "mesh" : 11,
            "name" : "Cube.011",
            "rotation" : [
                0,
                0,
                -0.3826834559440613,
                0.9238795042037964
            ],
            "scale" : [
                0.5255431532859802,
                0.5255431532859802,
                0.12872110307216644
            ],
            "translation" : [
                0,
                -1.0470476150512695,
                -1.979794979095459
            ]
        }
    ],
    "materials" : [
        {
            "doubleSided" : true,
            "emissiveFactor" : [
                0,
                0,
                0
            ],
            "name" : "Material",
            "pbrMetallicRoughness" : {
                "baseColorFactor" : [
                    0.800000011920929,
                    0.800000011920929,
                    0.800000011920929,
                    1
                ],
                "metallicFactor" : 0,
                "roughnessFactor" : 0.4000000059604645
            }
        }
    ],
    "meshes" : [
        {
            "name" : "Cube",
            "primitives" : [
                {
                    "attributes" : {
                        "POSITION" : 0,
                        "NORMAL" : 1,
                        "TEXCOORD_0" : 2
                    },
                    "indices" : 3,
                    "material" : 0
                }
            ]
        },
        {
            "name" : "Cube.001",
            "primitives" : [
                {
                    "attributes" : {
                        "POSITION" : 4,
                        "NORMAL" : 5,
                        "TEXCOORD_0" : 6
                    },
                    "indices" : 3,
                    "material" : 0
                }
            ]
        },
        {
            "name" : "Cube.003",
            "primitives" : [
                {
                    "attributes" : {
                        "POSITION" : 7,
                        "NORMAL" : 8,
                        "TEXCOORD_0" : 9
                    },
                    "indices" : 10
                }
            ]
        },
        {
            "name" : "Cube.004",
            "primitives" : [
                {
                    "attributes" : {
                        "POSITION" : 11,
                        "NORMAL" : 12,
                        "TEXCOORD_0" : 13
                    },
                    "indices" : 14
                }
            ]
        },
        {
            "name" : "Cube.005",
            "primitives" : [
                {
                    "attributes" : {
                        "POSITION" : 15,
                        "NORMAL" : 16,
                        "TEXCOORD_0" : 17
                    },
                    "indices" : 14
                }
            ]
        },
        {
            "name" : "Cube.006",
            "primitives" : [
                {
                    "attributes" : {
                        "POSITION" : 18,
                        "NORMAL" : 19,
                        "TEXCOORD_0" : 20
                    },
                    "indices" : 21
                }
            ]
        },
        {
            "name" : "Cube.007",
            "primitives" : [
                {
                    "attributes" : {
                        "POSITION" : 22,
                        "NORMAL" : 23,
                        "TEXCOORD_0" : 24
                    },
                    "indices" : 25
                }
            ]
        },
        {
            "name" : "Cube.008",
            "primitives" : [
                {
                    "attributes" : {
                        "POSITION" : 26,
                        "NORMAL" : 27,
                        "TEXCOORD_0" : 28
                    },
                    "indices" : 25
                }
            ]
        },
        {
            "name" : "Cube.009",
            "primitives" : [
                {
                    "attributes" : {
                        "POSITION" : 29,
                        "NORMAL" : 30,
                        "TEXCOORD_0" : 31
                    },
                    "indices" : 25
                }
            ]
        },
        {
            "name" : "Cube.010",
            "primitives" : [
                {
                    "attributes" : {
                        "POSITION" : 32,
                        "NORMAL" : 33,
                        "TEXCOORD_0" : 34
                    },
                    "indices" : 3,
                    "material" : 0
                }
            ]
        },
        {
            "name" : "Cube.011",
            "primitives" : [
                {
                    "attributes" : {
                        "POSITION" : 35,
                        "NORMAL" : 36,
                        "TEXCOORD_0" : 37
                    },
                    "indices" : 38
                }
            ]
        },
        {
            "name" : "Cube.012",
            "primitives" : [
                {
                    "attributes" : {
                        "POSITION" : 39,
                        "NORMAL" : 40,
                        "TEXCOORD_0" : 41
                    },
                    "indices" : 3,
                    "material" : 0
                }
            ]
        }
    ],
    "accessors" : [
        {
            "bufferView" : 0,
            "componentType" : 5126,
            "count" : 24,
            "max" : [
                1,
                1,
                1
            ],
            "min" : [
                -1,
                -1,
                -1
            ],
            "type" : "VEC3"
        },
        {
            "bufferView" : 1,
            "componentType" : 5126,
            "count" : 24,
            "type" : "VEC3"
        },
        {
            "bufferView" : 2,
            "componentType" : 5126,
            "count" : 24,
            "type" : "VEC2"
        },
        {
            "bufferView" : 3,
            "componentType" : 5123,
            "count" : 36,
            "type" : "SCALAR"
        },
        {
            "bufferView" : 4,
            "componentType" : 5126,
            "count" : 24,
            "max" : [
                1,
                1,
                1
            ],
            "min" : [
                -1,
                -1,
                -1
            ],
            "type" : "VEC3"
        },
        {
            "bufferView" : 5,
            "componentType" : 5126,
            "count" : 24,
            "type" : "VEC3"
        },
        {
            "bufferView" : 6,
            "componentType" : 5126,
            "count" : 24,
            "type" : "VEC2"
        },
        {
            "bufferView" : 7,
            "componentType" : 5126,
            "count" : 48,
            "max" : [
                3.7367687225341797,
                2.2898616790771484,
                28.47455596923828
            ],
            "min" : [
                -1,
                -1,
                -1
            ],
            "type" : "VEC3"
        },
        {
            "bufferView" : 8,
            "componentType" : 5126,
            "count" : 48,
            "type" : "VEC3"
        },
        {
            "bufferView" : 9,
            "componentType" : 5126,
            "count" : 48,
            "type" : "VEC2"
        },
        {
            "bufferView" : 10,
            "componentType" : 5123,
            "count" : 72,
            "type" : "SCALAR"
        },
        {
            "bufferView" : 11,
            "componentType" : 5126,
            "count" : 48,
            "max" : [
                2.0954320430755615,
                101.87699890136719,
                9.578452110290527
            ],
            "min" : [
                -1,
                -1,
                -1
            ],
            "type" : "VEC3"
        },
        {
            "bufferView" : 12,
            "componentType" : 5126,
            "count" : 48,
            "type" : "VEC3"
        },
        {
            "bufferView" : 13,
            "componentType" : 5126,
            "count" : 48,
            "type" : "VEC2"
        },
        {
            "bufferView" : 14,
            "componentType" : 5123,
            "count" : 72,
            "type" : "SCALAR"
        },
        {
            "bufferView" : 15,
            "componentType" : 5126,
            "count" : 48,
            "max" : [
                1.0664621591567993,
                15.474161148071289,
                1.7553064823150635
            ],
            "min" : [
                -1,
                -1,
                -1
            ],
            "type" : "VEC3"
        },
        {
            "bufferView" : 16,
            "componentType" : 5126,
            "count" : 48,
            "type" : "VEC3"
        },
        {
            "bufferView" : 17,
            "componentType" : 5126,
            "count" : 48,
            "type" : "VEC2"
        },
        {
            "bufferView" : 18,
            "componentType" : 5126,
            "count" : 48,
            "max" : [
                3.3275156021118164,
                4.607995510101318,
                41.05335998535156
            ],
            "min" : [
                -1,
                -1,
                -1
            ],
            "type" : "VEC3"
        },
        {
            "bufferView" : 19,
            "componentType" : 5126,
            "count" : 48,
            "type" : "VEC3"
        },
        {
            "bufferView" : 20,
            "componentType" : 5126,
            "count" : 48,
            "type" : "VEC2"
        },
        {
            "bufferView" : 21,
            "componentType" : 5123,
            "count" : 72,
            "type" : "SCALAR"
        },
        {
            "bufferView" : 22,
            "componentType" : 5126,
            "count" : 48,
            "max" : [
                19.518550872802734,
                1,
                1
            ],
            "min" : [
                -1,
                -1,
                -1
            ],
            "type" : "VEC3"
        },
        {
            "bufferView" : 23,
            "componentType" : 5126,
            "count" : 48,
            "type" : "VEC3"
        },
        {
            "bufferView" : 24,
            "componentType" : 5126,
            "count" : 48,
            "type" : "VEC2"
        },
        {
            "bufferView" : 25,
            "componentType" : 5123,
            "count" : 72,
            "type" : "SCALAR"
        },
        {
            "bufferView" : 26,
            "componentType" : 5126,
            "count" : 48,
            "max" : [
                9.84201431274414,
                1,
                1
            ],
            "min" : [
                -1,
                -1,
                -1
            ],
            "type" : "VEC3"
        },
        {
            "bufferView" : 27,
            "componentType" : 5126,
            "count" : 48,
            "type" : "VEC3"
        },
        {
            "bufferView" : 28,
            "componentType" : 5126,
            "count" : 48,
            "type" : "VEC2"
        },
        {
            "bufferView" : 29,
            "componentType" : 5126,
            "count" : 48,
            "max" : [
                17.77205467224121,
                1,
                1.0000001192092896
            ],
            "min" : [
                -1,
                -1,
                -1
            ],
            "type" : "VEC3"
        },
        {
            "bufferView" : 30,
            "componentType" : 5126,
            "count" : 48,
            "type" : "VEC3"
        },
        {
            "bufferView" : 31,
            "componentType" : 5126,
            "count" : 48,
            "type" : "VEC2"
        },
        {
            "bufferView" : 32,
            "componentType" : 5126,
            "count" : 24,
            "max" : [
                1,
                1,
                1
            ],
            "min" : [
                -1,
                -1,
                -1
            ],
            "type" : "VEC3"
        },
        {
            "bufferView" : 33,
            "componentType" : 5126,
            "count" : 24,
            "type" : "VEC3"
        },
        {
            "bufferView" : 34,
            "componentType" : 5126,
            "count" : 24,
            "type" : "VEC2"
        },
        {
            "bufferView" : 35,
            "componentType" : 5126,
            "count" : 48,
            "max" : [
                4.19044303894043,
                1,
                1
            ],
            "min" : [
                -1,
                -25.298912048339844,
                -1.2573140859603882
            ],
            "type" : "VEC3"
        },
        {
            "bufferView" : 36,
            "componentType" : 5126,
            "count" : 48,
            "type" : "VEC3"
        },
        {
            "bufferView" : 37,
            "componentType" : 5126,
            "count" : 48,
            "type" : "VEC2"
        },
        {
            "bufferView" : 38,
            "componentType" : 5123,
            "count" : 72,
            "type" : "SCALAR"
        },
        {
            "bufferView" : 39,
            "componentType" : 5126,
            "count" : 24,
            "max" : [
                1,
                1,
                1
            ],
            "min" : [
                -1,
                -1,
                -1
            ],
            "type" : "VEC3"
        },
        {
            "bufferView" : 40,
            "componentType" : 5126,
            "count" : 24,
            "type" : "VEC3"
        },
        {
            "bufferView" : 41,
            "componentType" : 5126,
            "count" : 24,
            "type" : "VEC2"
        }
    ],
    "bufferViews" : [
        {
            "buffer" : 0,
            "byteLength" : 288,
            "byteOffset" : 0
        },
        {
            "buffer" : 0,
            "byteLength" : 288,
            "byteOffset" : 288
        },
        {
            "buffer" : 0,
            "byteLength" : 192,
            "byteOffset" : 576
        },
        {
            "buffer" : 0,
            "byteLength" : 72,
            "byteOffset" : 768
        },
        {
            "buffer" : 0,
            "byteLength" : 288,
            "byteOffset" : 840
        },
        {
            "buffer" : 0,
            "byteLength" : 288,
            "byteOffset" : 1128
        },
        {
            "buffer" : 0,
            "byteLength" : 192,
            "byteOffset" : 1416
        },
        {
            "buffer" : 0,
            "byteLength" : 576,
            "byteOffset" : 1608
        },
        {
            "buffer" : 0,
            "byteLength" : 576,
            "byteOffset" : 2184
        },
        {
            "buffer" : 0,
            "byteLength" : 384,
            "byteOffset" : 2760
        },
        {
            "buffer" : 0,
            "byteLength" : 144,
            "byteOffset" : 3144
        },
        {
            "buffer" : 0,
            "byteLength" : 576,
            "byteOffset" : 3288
        },
        {
            "buffer" : 0,
            "byteLength" : 576,
            "byteOffset" : 3864
        },
        {
            "buffer" : 0,
            "byteLength" : 384,
            "byteOffset" : 4440
        },
        {
            "buffer" : 0,
            "byteLength" : 144,
            "byteOffset" : 4824
        },
        {
            "buffer" : 0,
            "byteLength" : 576,
            "byteOffset" : 4968
        },
        {
            "buffer" : 0,
            "byteLength" : 576,
            "byteOffset" : 5544
        },
        {
            "buffer" : 0,
            "byteLength" : 384,
            "byteOffset" : 6120
        },
        {
            "buffer" : 0,
            "byteLength" : 576,
            "byteOffset" : 6504
        },
        {
            "buffer" : 0,
            "byteLength" : 576,
            "byteOffset" : 7080
        },
        {
            "buffer" : 0,
            "byteLength" : 384,
            "byteOffset" : 7656
        },
        {
            "buffer" : 0,
            "byteLength" : 144,
            "byteOffset" : 8040
        },
        {
            "buffer" : 0,
            "byteLength" : 576,
            "byteOffset" : 8184
        },
        {
            "buffer" : 0,
            "byteLength" : 576,
            "byteOffset" : 8760
        },
        {
            "buffer" : 0,
            "byteLength" : 384,
            "byteOffset" : 9336
        },
        {
            "buffer" : 0,
            "byteLength" : 144,
            "byteOffset" : 9720
        },
        {
            "buffer" : 0,
            "byteLength" : 576,
            "byteOffset" : 9864
        },
        {
            "buffer" : 0,
            "byteLength" : 576,
            "byteOffset" : 10440
        },
        {
            "buffer" : 0,
            "byteLength" : 384,
            "byteOffset" : 11016
        },
        {
            "buffer" : 0,
            "byteLength" : 576,
            "byteOffset" : 11400
        },
        {
            "buffer" : 0,
            "byteLength" : 576,
            "byteOffset" : 11976
        },
        {
            "buffer" : 0,
            "byteLength" : 384,
            "byteOffset" : 12552
        },
        {
            "buffer" : 0,
            "byteLength" : 288,
            "byteOffset" : 12936
        },
        {
            "buffer" : 0,
            "byteLength" : 288,
            "byteOffset" : 13224
        },
        {
            "buffer" : 0,
            "byteLength" : 192,
            "byteOffset" : 13512
        },
        {
            "buffer" : 0,
            "byteLength" : 576,
            "byteOffset" : 13704
        },
        {
            "buffer" : 0,
            "byteLength" : 576,
            "byteOffset" : 14280
        },
        {
            "buffer" : 0,
            "byteLength" : 384,
            "byteOffset" : 14856
        },
        {
            "buffer" : 0,
            "byteLength" : 144,
            "byteOffset" : 15240
        },
        {
            "buffer" : 0,
            "byteLength" : 288,
            "byteOffset" : 15384
        },
        {
            "buffer" : 0,
            "byteLength" : 288,
            "byteOffset" : 15672
        },
        {
            "buffer" : 0,
            "byteLength" : 192,
            "byteOffset" : 15960
        }
    ],
    "buffers" : [
        {
            "byteLength" : 16152,
            "uri" : "Ladybug.bin"
        }
    ]
}
